<svg xmlns="http://www.w3.org/2000/svg" xmlns:xlink="http://www.w3.org/1999/xlink" style="vertical-align:-3.005ex" width="75.314ex" height="6.884ex" viewBox="0 -1670.4 32426.7 2964.1"><defs><path id="i" stroke-width="1" d="M96 585q56 81 153 81 48 0 96-26t78-92q37-83 37-228 0-155-43-237-20-42-55-67t-61-31-51-7q-26 0-52 6t-61 32-55 67q-43 82-43 237 0 174 57 265zm225 12q-30 32-71 32-42 0-72-32-25-26-33-72t-8-192q0-158 8-208t36-79q28-30 69-30 40 0 68 30 29 30 36 84t8 203q0 145-8 191t-33 73z"/><path id="a" stroke-width="1" d="M94 250q0 69 10 131t23 107 37 88 38 67 42 52 33 34 25 21h17q14 0 14-9 0-3-17-21t-41-53-49-86-42-138-17-193 17-192 41-139 49-86 42-53 17-21q0-9-15-9h-16l-28 24q-94 85-137 212T94 250z"/><path id="c" stroke-width="1" d="M56 237v13l14 20h299v150l1 150q10 13 19 13 13 0 20-15V270h298q15-8 15-20t-15-20H409V-68q-8-14-18-14h-4q-12 0-18 14v298H70q-14 7-14 20z"/><path id="d" stroke-width="1" d="M33 157q0 101 76 192t171 92q51 0 90-49 16 30 46 30 13 0 23-8t10-20q0-13-37-160T374 68q0-25 7-33t21-9q9 1 20 9 21 20 41 96 6 20 10 21 2 1 10 1h4q19 0 19-9 0-6-5-27t-20-54-32-50Q436 0 417-8q-8-2-24-2-34 0-57 15t-30 31l-6 15q-1 1-4-1l-4-4q-59-56-120-56-55 0-97 40T33 157zm318 171q0 6-5 22t-23 35-46 20q-35 0-67-31t-50-81q-29-79-41-164v-11q0-8-1-12 0-45 18-62t43-18q38 0 75 33t44 51q2 4 27 107t26 111z"/><path id="e" stroke-width="1" d="M60 749l4 1h22l28-24q94-85 137-212t43-264q0-68-10-131T261 12t-37-88-38-67-41-51-32-33-23-19l-4-4H63q-3 0-5 3t-3 9q1 1 11 13Q221-64 221 250T66 725q-10 12-11 13 0 8 5 11z"/><path id="f" stroke-width="1" d="M21 287q1 6 3 16t12 38 20 47 33 37 46 17q36 0 60-18t30-34 6-21q0-2 1-2l11 11q61 64 139 64 54 0 87-27t34-79-38-157-38-127q0-26 17-26 6 0 9 1 29 5 52 38t35 80q2 8 20 8 20 0 20-8 0-1-4-15-8-29-22-57t-46-56-69-27q-47 0-68 27t-21 56q0 19 36 120t37 152q0 59-44 59h-5q-86 0-145-101l-7-12-33-134Q156 26 151 16q-13-27-43-27-13 0-21 6T76 7t-2 10q0 13 38 163t40 163q1 5 1 23 0 39-24 39-38 0-63-100-6-20-6-21-2-6-19-6H27q-6 6-6 9z"/><path id="g" stroke-width="1" d="M56 347q0 13 14 20h637q15-8 15-20 0-11-14-19l-318-1H72q-16 5-16 20zm0-194q0 15 16 20h636q14-10 14-20 0-13-15-20H70q-14 7-14 20z"/><path id="h" stroke-width="1" d="M701-940q0-3-6-9h-31q-2 2-28 27t-45 43-54 61-62 81-63 101-62 125-55 149-45 176-29 203-12 234q0 711 364 1110 23 25 43 44t33 32 15 13h31q6-6 6-9 0-5-20-26t-52-59-72-95-81-143-76-191-60-252-32-316q-2-38-2-109 0-389 94-680t290-494q11-12 11-16z"/><path id="b" stroke-width="1" d="M52 289q7 42 54 97t116 56q35 0 64-18t43-45q42 63 101 63 37 0 64-22t28-59q0-29-14-47t-27-22-23-4q-19 0-31 11t-12 29q0 46 50 63-11 13-40 13-13 0-19-2-38-16-56-66-60-221-60-258 0-28 16-40t35-12q37 0 73 33t49 81q3 10 6 11t16 2h4q15 0 15-8 0-1-2-11-16-57-62-101T333-11q-70 0-106 63-41-62-94-62h-6q-49 0-70 26T35 71q0 32 19 52t45 20q43 0 43-42 0-20-12-35t-23-20-13-5l-3-1q0-1 6-4t16-7 19-3q36 0 62 45 9 16 23 68t28 108 16 66q5 27 5 39 0 28-15 40t-34 12q-40 0-75-32t-49-82q-2-9-5-10t-16-2H58q-6 6-6 11z"/><path id="j" stroke-width="1" d="M34 1438q0 8 3 10t13 2h21q2-2 28-27t45-43 54-61 62-81 63-101 62-124 55-149 45-176 29-203 12-234q0-117-7-198-47-572-357-913-23-25-43-44t-33-32-15-13H56q-13 0-17 2t-5 10q54 54 106 124Q428-430 428 251q0 202-26 377t-64 294-93 224-100 163-99 116l-4 4q-2 2-3 4t-3 3l-2 2z"/><path id="k" stroke-width="1" d="M213 578l-13-5q-14-5-40-10t-58-7H83v46h19q47 2 87 15t56 24 28 22q2 3 12 3 9 0 17-6V361l1-300q7-7 12-9t24-4 62-2h26V0h-11q-21 3-159 3-136 0-157-3H88v46h64q16 0 25 1t16 3 8 2 6 5 6 4v517z"/><path id="l" stroke-width="1" d="M84 237v13l14 20h581q15-8 15-20t-15-20H98q-14 7-14 20z"/><path id="m" stroke-width="1" d="M78 250q0 24 17 42t43 18q24 0 42-16t19-43q0-25-17-43t-43-18-43 17-18 43zm447 0q0 24 17 42t43 18q24 0 42-16t19-43q0-25-17-43t-43-18-43 17-18 43zm447 0q0 24 17 42t43 18q24 0 42-16t19-43q0-25-17-43t-43-18-43 17-18 43z"/><path id="n" stroke-width="1" d="M630 29q0-20-21-20-5 0-22 16t-94 93L389 222 284 117Q178 13 175 11q-4-2-7-2-8 0-14 6t-7 14q0 7 14 22t94 95l104 104-104 104q-81 81-94 95t-14 22q0 9 6 14t15 5q5 0 7-1 3-2 109-106l105-105 104 104q77 77 94 93t22 16q21 0 21-20 0-7-10-18t-98-98L418 250l104-105q84-84 96-97t12-19z"/><path id="o" stroke-width="1" d="M60 948q3 2 605 2h602l58-135q59-138 63-146h-40l-7 14q-21 41-56 78-50 48-111 77t-141 43-151 17-183 4H251l8-11q463-633 465-639 1-2 0-6-3-3-264-302L196-356q0-1 211-1h141q89 0 128-1 136 0 220 5t167 21 141 49 103 87q21 26 41 72h40q0-1-7-21t-25-65-31-84l-58-155-601-1q-602 0-605 2-6 2-6 9 0 2 2 6l533 610q0 1-33 45T452 366 322 544L56 909l-1 15q0 21 5 24z"/><path id="p" stroke-width="1" d="M121 647q0 10 4 23t12 13q1 0 72 5t73 6q12 0 12-8 0-7-50-209-50-198-50-205 19 10 29 19 24 18 69 63t70 61q40 27 76 27 30 0 47-19t18-54q0-25-7-42t-19-25-21-11-18-3q-20 0-32 11t-12 29q0 25 16 41t32 21l16 3q-12 12-24 12h-4q-32-3-63-25t-73-64-66-61q2-1 15-3t24-6 26-8 27-14 22-18 17-26 6-33q0-17-5-41t-6-40q0-40 27-40 48 0 78 119 2 8 20 8h4q16 0 16-9 0-5-3-14Q455-11 378-11q-45 0-73 26t-28 75q0 18 3 31t3 24q0 22-14 38t-35 23-34 11-18 3h-2q-12-42-21-81t-14-58-9-37-7-24-7-13-11-9q-13-9-28-9-17 0-26 10t-9 17q0 10 37 160t73 295l37 145q1 13-7 16t-39 5h-18q-3 0-7 3t-3 7z"/></defs><g fill="currentColor" stroke="currentColor" stroke-width="0" transform="scale(1 -1)"><use xlink:href="#a"/><use x="389" xlink:href="#b"/><use x="1184" xlink:href="#c"/><use x="2184" xlink:href="#d"/><g transform="translate(2714)"><use xlink:href="#e"/><use x="550" y="583" transform="scale(.707)" xlink:href="#f"/></g><use x="3906" xlink:href="#g"/><g transform="translate(4962)"><use y="-1" xlink:href="#h"/><g transform="translate(736)"><use y="676" xlink:href="#f"/><use x="50" y="-686" xlink:href="#i"/></g><use x="1337" y="-1" xlink:href="#j"/></g><g transform="translate(7036)"><use xlink:href="#b"/><use x="809" y="583" transform="scale(.707)" xlink:href="#f"/></g><g transform="translate(8133)"><use xlink:href="#d"/><use x="748" y="583" transform="scale(.707)" xlink:href="#i"/></g><use x="9338" xlink:href="#c"/><g transform="translate(10339)"><use y="-1" xlink:href="#h"/><g transform="translate(736)"><use y="676" xlink:href="#f"/><use x="50" y="-686" xlink:href="#k"/></g><use x="1337" y="-1" xlink:href="#j"/></g><g transform="translate(12413)"><use xlink:href="#b"/><g transform="matrix(.707 0 0 .707 572 412)"><use xlink:href="#f"/><use x="600" xlink:href="#l"/><use x="1379" xlink:href="#k"/></g></g><g transform="translate(14414)"><use xlink:href="#d"/><use x="748" y="583" transform="scale(.707)" xlink:href="#k"/></g><use x="15620" xlink:href="#c"/><use x="16620" xlink:href="#m"/><use x="18015" xlink:href="#c"/><g transform="translate(19016)"><use y="-1" xlink:href="#h"/><g transform="translate(736)"><use y="676" xlink:href="#f"/><use y="-686" xlink:href="#f"/></g><use x="1337" y="-1" xlink:href="#j"/></g><use x="21312" xlink:href="#n"/><g transform="translate(22312)"><use xlink:href="#b"/><use x="809" y="583" transform="scale(.707)" xlink:href="#i"/></g><g transform="translate(23339)"><use xlink:href="#d"/><use x="748" y="583" transform="scale(.707)" xlink:href="#f"/></g><use x="24671" xlink:href="#g"/><g transform="translate(25727)"><use xlink:href="#o"/><g transform="matrix(.707 0 0 .707 85 -1110)"><use xlink:href="#p"/><use x="521" xlink:href="#g"/><use x="1300" xlink:href="#i"/></g><use x="721" y="1627" transform="scale(.707)" xlink:href="#f"/></g><g transform="translate(27338)"><use y="-1" xlink:href="#h"/><g transform="translate(736)"><use y="676" xlink:href="#f"/><use x="39" y="-686" xlink:href="#p"/></g><use x="1337" y="-1" xlink:href="#j"/></g><g transform="translate(29412)"><use xlink:href="#b"/><use x="809" y="583" transform="scale(.707)" xlink:href="#p"/></g><g transform="translate(30453)"><use xlink:href="#d"/><g transform="matrix(.707 0 0 .707 529 412)"><use xlink:href="#f"/><use x="600" xlink:href="#l"/><use x="1379" xlink:href="#p"/></g></g></g></svg>